<svg xmlns="http://www.w3.org/2000/svg" viewBox="0 0 64 64">
  <rect width="64" height="64" rx="16" fill="#25d366"/>
  <path fill="#fff" d="M32 22a9 9 0 0 0-9 9c0 2 .7 4 1.8 5.5L24 42l5.5-1.3c1.4.8 3.1 1.3 4.7 1.3 5 0 9-4 9-9s-4-9-9-9z"/>
  <path fill="#25d366" d="M30 30.2c.3.2.8.4 1.7.7.9.3 1.7.4 2.4.3.7 0 1.3-.2 1.8-.4.4-.2.8-.4 1.1-.5.4-.1.7.1.9.4.4.6.8 1.4 1 2.2.2.8.2 1.6 0 2.5-.2.8-.8 1.3-1.3 1.7-.8.7-1.5 1.3-2.6 1.3-1 0-1.7-.1-2.5-.4-1-.4-2.1-1.1-3.1-2.3-.6-.7-1.3-1.7-1.3-3 0-.7.2-1.3.4-1.9.3-.7.7-1.3 1.4-1.2.6.1 1.1.4 1.4.6z"/>
</svg>